<svg width="29" height="29" viewBox="0 0 29 29" fill="none" xmlns="http://www.w3.org/2000/svg">
<circle cx="14.5" cy="14.5" r="14" stroke="#0084F4"/>
<path d="M19.403 13.7325H15.2674V9.5969C15.2674 9.4085 15.0116 9 14.5 9C13.9884 9 13.7325 9.40852 13.7325 9.5969V13.7326H9.5969C9.40852 13.7325 9 13.9884 9 14.5C9 15.0116 9.40852 15.2674 9.5969 15.2674H13.7326V19.4031C13.7326 19.5914 13.9884 20 14.5 20C15.0116 20 15.2674 19.5914 15.2674 19.4031V15.2674H19.4031C19.5915 15.2674 20 15.0116 20 14.5C20 13.9883 19.5914 13.7325 19.403 13.7325Z" fill="#1E91F4"/>
</svg>
