<svg width="40" height="40" viewBox="0 0 40 40" fill="none" xmlns="http://www.w3.org/2000/svg">
<g clip-path="url(#clip0)">
<path d="M12.8789 16.9594C13.2433 19.3281 15.0736 22.3427 18.08 23.4028C19.314 23.8335 20.664 23.8418 21.898 23.3945C24.8547 22.3261 26.743 19.3198 27.1157 16.9594C27.5132 16.9263 28.035 16.3714 28.5981 14.3754C29.3684 11.6506 28.5484 11.2448 27.8527 11.3111C27.9853 10.9384 28.0846 10.5574 28.1509 10.193C29.327 3.12843 25.8485 2.88825 25.8485 2.88825C25.8485 2.88825 25.2688 1.77846 23.7531 0.941976C22.7345 0.337389 21.3182 -0.126404 19.4548 0.030954C18.8502 0.0558 18.2787 0.18003 17.7404 0.353953C17.053 0.585849 16.4236 0.925412 15.8521 1.32295C15.1564 1.7619 14.4938 2.30851 13.9141 2.92966C12.9948 3.87381 12.1749 5.09127 11.8188 6.60687C11.5206 7.74151 11.5869 8.92584 11.8353 10.2013C11.9016 10.574 12.001 10.9467 12.1335 11.3193C11.4378 11.2531 10.6179 11.6589 11.3881 14.3837C11.9595 16.3714 12.4813 16.9263 12.8789 16.9594Z" fill="white"/>
<path d="M33.6585 26.2269C29.4263 25.1503 25.9893 22.7319 25.9893 22.7319L23.3059 31.221L22.8007 32.8194L22.7925 32.7946L22.3535 34.1528L20.9373 30.1361C24.4157 25.2828 20.2333 25.3325 20.0014 25.3408C19.7695 25.3325 15.5871 25.2828 19.0655 30.1361L17.6493 34.1528L17.2104 32.7946L17.2021 32.8194L16.6969 31.221L14.0052 22.7319C14.0052 22.7319 10.5682 25.1503 6.33608 26.2269C3.18063 27.0303 3.03155 30.6744 3.15578 32.4716C3.15578 32.4716 3.33799 34.9148 3.52019 35.9914C3.52019 35.9914 9.68201 39.9917 20.0014 39.9999C30.3208 39.9999 36.4826 35.9914 36.4826 35.9914C36.6648 34.9148 36.847 32.4716 36.847 32.4716C36.963 30.6744 36.8139 27.0303 33.6585 26.2269Z" fill="white"/>
</g>
<defs>
<clipPath id="clip0">
<rect width="40" height="40" fill="white"/>
</clipPath>
</defs>
</svg>
