<svg width="45" height="19" viewBox="0 0 19 19" fill="none" xmlns="http://www.w3.org/2000/svg">
<g clip-path="url(#clip0)">
<path d="M12.2276 3.323H3.39489C2.5661 3.323 1.89294 3.99615 1.89294 4.82494V17.4981C1.89294 18.3269 2.5661 19 3.39489 19H12.2276C13.0564 19 13.7295 18.3269 13.7295 17.4981V4.82494C13.7256 3.99615 13.0525 3.323 12.2276 3.323ZM12.675 17.4942C12.675 17.7432 12.4727 17.9456 12.2237 17.9456H3.391C3.14197 17.9456 2.93964 17.7432 2.93964 17.4942V4.82494C2.93964 4.57592 3.14197 4.37358 3.391 4.37358H12.2237C12.4727 4.37358 12.675 4.57592 12.675 4.82494V17.4942Z" fill="#9CAFC6"/>
<path d="M15.605 0H6.77233C5.94354 0 5.27039 0.673152 5.27039 1.50195C5.27039 1.79377 5.50385 2.02724 5.79568 2.02724C6.08751 2.02724 6.32097 1.79377 6.32097 1.50195C6.32097 1.25292 6.5233 1.05058 6.77233 1.05058H15.605C15.854 1.05058 16.0564 1.25292 16.0564 1.50195V14.1751C16.0564 14.4241 15.854 14.6265 15.605 14.6265C15.3132 14.6265 15.0797 14.8599 15.0797 15.1518C15.0797 15.4436 15.3132 15.677 15.605 15.677C16.4338 15.677 17.107 15.0039 17.107 14.1751V1.50195C17.107 0.673152 16.4338 0 15.605 0Z" fill="#9CAFC6"/>
</g>
<defs>
<clipPath id="clip0">
<rect width="19" height="19" fill="white"/>
</clipPath>
</defs>
</svg>
