<svg width="45" height="26" viewBox="0 0 26 26" fill="none" xmlns="http://www.w3.org/2000/svg">
<path d="M25.7688 5.51449C25.6244 5.41293 25.4393 5.38805 25.2732 5.44944L20.8574 7.0554C20.3099 7.25431 19.874 7.65528 19.6301 8.18422C19.5844 8.28339 19.5544 8.38643 19.5244 8.48931C18.7661 8.27374 17.3569 7.82352 15.9565 7.10197C13.8403 6.01154 12.2236 6.55013 10.8369 7.6078C10.1343 7.62161 9.16591 7.70469 8.21397 7.78858C7.60672 7.84215 7.03285 7.89146 6.56749 7.91985C6.55606 7.64035 6.49065 7.36298 6.37 7.10095C6.12615 6.57196 5.69029 6.17099 5.14277 5.97213L0.726832 4.36608C0.561285 4.30524 0.37507 4.33012 0.231207 4.43113C0.0862265 4.53274 0 4.69829 0 4.87496V15.7083C0 16.0077 0.242277 16.25 0.541683 16.25H2.12382C2.79673 16.25 3.42276 15.9326 3.82743 15.4201C4.043 15.584 4.29833 15.776 4.5661 15.977C5.19822 16.4526 5.89012 16.9715 6.19374 17.2259C8.21072 18.9144 10.6355 20.7377 11.1185 21.0551C11.5696 21.3513 12.3821 21.6666 13 21.6666C13.2417 21.6666 13.8506 21.6666 14.278 21.3053C14.7186 21.4783 15.1936 21.4699 15.6353 21.2752C16.076 21.081 16.4325 20.715 16.6398 20.2701C17.063 20.3568 17.5491 20.2934 17.9898 20.0723C18.4029 19.8654 18.707 19.5523 18.87 19.1862C19.2614 19.2222 19.6793 19.0947 20.0533 18.8085C20.5876 18.4001 20.8322 17.7969 20.763 17.2018L22.137 16.4417C22.5394 16.9871 23.1789 17.3332 23.8761 17.3332H25.4583C25.7577 17.3332 25.9999 17.0909 25.9999 16.7915V5.95832C26 5.7816 25.9138 5.61606 25.7688 5.51449ZM3.13838 14.4636C2.98076 14.8841 2.57293 15.1666 2.12382 15.1666H1.08332V5.6483L4.77237 6.98979C5.04639 7.08978 5.26434 7.29026 5.38596 7.55473C5.50814 7.8192 5.51875 8.11546 5.41663 8.38785L3.13838 14.4636ZM19.3958 17.948C19.2122 18.0887 18.9552 18.167 18.8409 18.0527C18.8351 18.0469 18.826 18.0475 18.82 18.0419C18.8097 18.0323 18.8045 18.0193 18.7933 18.0104C18.4061 17.7046 16.6711 15.9294 15.5989 14.8112C15.392 14.5948 15.0488 14.5869 14.8335 14.7948C14.6171 15.0016 14.6097 15.3444 14.8171 15.5602C15.0687 15.8229 17.089 17.927 17.8976 18.6629C17.8372 18.9007 17.6167 19.0476 17.5048 19.1038C17.1578 19.2778 16.7959 19.2487 16.6605 19.1228C16.6565 19.119 16.6505 19.1192 16.6463 19.1156C16.6397 19.1097 16.6368 19.1014 16.6298 19.0958C15.9802 18.5769 14.3505 16.8451 13.9818 16.4441C13.7791 16.2235 13.4369 16.2097 13.2163 16.4118C12.9963 16.6145 12.9815 16.9572 13.1841 17.1773C13.2019 17.1965 14.799 18.9194 15.6961 19.7196C15.6079 19.9729 15.4283 20.1827 15.1979 20.2844C15.0278 20.36 14.7618 20.3987 14.4579 20.1741C13.68 19.5146 12.1189 17.8529 11.8119 17.5243C11.6083 17.3052 11.2644 17.2942 11.0465 17.4984C10.828 17.7026 10.8164 18.0453 11.0206 18.2638C11.3846 18.6534 12.4605 19.7937 13.2784 20.5659C13.187 20.577 13.0911 20.5833 13 20.5833C12.6413 20.5833 12.0251 20.3543 11.7136 20.1495C11.3338 19.8999 8.94913 18.1204 6.88985 16.396C6.5783 16.1346 5.86737 15.5999 5.21671 15.1111C4.86799 14.8493 4.5467 14.6079 4.30991 14.4258L6.33801 9.01678C6.86446 8.99377 7.5663 8.93309 8.30908 8.86758C8.72919 8.83056 9.14976 8.79445 9.55165 8.76317C8.93394 9.39728 8.01556 10.533 8.13663 11.5976C8.19218 12.0821 8.45721 12.4857 8.90419 12.765C9.78915 13.3189 11.4274 12.8544 12.2166 11.8838C12.726 11.8103 13.0704 11.6802 13.4459 11.4939C14.0807 12.0906 14.9318 12.7921 15.8258 13.5289C17.382 14.8111 19.1461 16.2647 19.6127 17.0799C19.8724 17.5332 19.5122 17.8591 19.3958 17.948ZM20.325 16.206C19.6033 15.2405 18.0389 13.9488 16.5145 12.6926C15.4983 11.8552 14.5388 11.0644 13.9246 10.4503C13.7554 10.2821 13.4956 10.244 13.2861 10.3556C12.7344 10.6513 12.4858 10.7735 11.8627 10.8359C11.6966 10.8528 11.5475 10.9449 11.4586 11.0861C11.0338 11.76 9.85314 12.0806 9.47862 11.8468C9.26595 11.7135 9.22472 11.578 9.21309 11.4749C9.16073 11.0142 9.62726 10.2165 10.4012 9.44207C12.3176 7.52558 13.6877 7.15056 15.4602 8.06463C17.1444 8.93294 18.8065 9.42389 19.5042 9.60934C19.5244 9.69049 19.539 9.77245 19.5688 9.85203L21.672 15.4609L20.325 16.206ZM24.9167 16.25H23.8762C23.4271 16.25 23.0192 15.9675 22.8616 15.5469L20.5833 9.47172C20.4812 9.19878 20.4918 8.90257 20.614 8.63805C20.7357 8.37358 20.9536 8.1731 21.2276 8.07311L24.9166 6.73162V16.25H24.9167Z" fill="#9CAFC6"/>
</svg>
