<svg width="45" height="20" viewBox="0 0 20 20" fill="none" xmlns="http://www.w3.org/2000/svg">
<path d="M17.0679 2.93132C15.1793 1.04271 12.6709 0 9.99926 0C7.32757 0 4.81919 1.04271 2.93058 2.93132C-0.712632 6.57454 -0.976451 12.3953 2.26894 16.34C1.82087 17.2571 1.29323 17.8685 0.694402 18.1616C0.330081 18.3417 0.124888 18.7353 0.183515 19.1374C0.246329 19.5436 0.556211 19.8576 0.962409 19.9204C1.18435 19.9539 1.42305 19.9749 1.67011 19.9749C2.89708 19.9749 4.18686 19.5519 5.26308 18.8107C6.71199 19.5896 8.34097 20 9.99926 20C12.6709 20 15.1793 18.9615 17.0679 17.0729C18.9565 15.1843 19.9951 12.6717 19.9951 10.0042C19.9951 7.33668 18.9565 4.81993 17.0679 2.93132ZM16.2681 16.2688C14.5931 17.9439 12.3653 18.8652 9.99926 18.8652C8.41634 18.8652 6.86274 18.4422 5.51015 17.6466C5.42221 17.5963 5.3217 17.567 5.22539 17.567C5.10395 17.567 4.97832 17.6089 4.87782 17.6843C3.59641 18.6767 2.30663 18.8233 1.7413 18.8358C2.41551 18.3333 2.98083 17.5544 3.45403 16.4698C3.54197 16.2688 3.50428 16.0343 3.35772 15.8668C0.258891 12.366 0.422208 7.03099 3.73041 3.72278C5.40546 2.04774 7.63326 1.12647 9.99926 1.12647C12.3653 1.12647 14.5931 2.04774 16.2681 3.72278C19.7271 7.18593 19.7271 12.8141 16.2681 16.2688Z" fill="#9CAFC6"/>
<path d="M14.1869 12.1692H5.81166C5.49759 12.1692 5.24634 12.4204 5.24634 12.7345C5.24634 13.0486 5.49759 13.2998 5.81166 13.2998H14.1869C14.5009 13.2998 14.7522 13.0486 14.7522 12.7345C14.7522 12.4204 14.4968 12.1692 14.1869 12.1692Z" fill="#9CAFC6"/>
<path d="M14.1869 9.43457H5.81166C5.49759 9.43457 5.24634 9.68583 5.24634 9.9999C5.24634 10.314 5.49759 10.5652 5.81166 10.5652H14.1869C14.5009 10.5652 14.7522 10.314 14.7522 9.9999C14.7522 9.68583 14.4968 9.43457 14.1869 9.43457Z" fill="#9CAFC6"/>
<path d="M14.1869 6.7002H5.81166C5.49759 6.7002 5.24634 6.95145 5.24634 7.26552C5.24634 7.57959 5.49759 7.83085 5.81166 7.83085H14.1869C14.5009 7.83085 14.7522 7.57959 14.7522 7.26552C14.7522 6.95145 14.4968 6.7002 14.1869 6.7002Z" fill="#9CAFC6"/>
</svg>
