<svg width="154" height="154" viewBox="0 0 154 154" fill="none" xmlns="http://www.w3.org/2000/svg">
<g filter="url(#filter0_d)">
<path fill-rule="evenodd" clip-rule="evenodd" d="M77 83C84.1797 83 90 77.1797 90 70C90 62.8203 84.1797 57 77 57C69.8203 57 64 62.8203 64 70C64 77.1797 69.8203 83 77 83Z" fill="white"/>
</g>
<path d="M77 81C83.0751 81 88 76.0751 88 70C88 63.9249 83.0751 59 77 59C70.9249 59 66 63.9249 66 70C66 76.0751 70.9249 81 77 81Z" fill="#0084F4"/>
<path d="M78.0474 74H76.7852V68.9297C76.7852 68.3245 76.7995 67.8447 76.8281 67.4902C76.7458 67.5762 76.6437 67.6711 76.522 67.7749C76.4038 67.8787 76.0028 68.2082 75.3188 68.7632L74.6851 67.9629L76.9946 66.1475H78.0474V74Z" fill="white"/>
<defs>
<filter id="filter0_d" x="0" y="0" width="154" height="154" filterUnits="userSpaceOnUse" color-interpolation-filters="sRGB">
<feFlood flood-opacity="0" result="BackgroundImageFix"/>
<feColorMatrix in="SourceAlpha" type="matrix" values="0 0 0 0 0 0 0 0 0 0 0 0 0 0 0 0 0 0 127 0"/>
<feOffset dy="7"/>
<feGaussianBlur stdDeviation="32"/>
<feColorMatrix type="matrix" values="0 0 0 0 0 0 0 0 0 0 0 0 0 0 0 0 0 0 0.07 0"/>
<feBlend mode="normal" in2="BackgroundImageFix" result="effect1_dropShadow"/>
<feBlend mode="normal" in="SourceGraphic" in2="effect1_dropShadow" result="shape"/>
</filter>
</defs>
</svg>
