<svg width="45" height="20" viewBox="0 -1 20 20" fill="none" xmlns="http://www.w3.org/2000/svg">
<g clip-path="url(#clip0)">
<path d="M16.7032 9.81226C16.3783 9.81226 16.1268 10.0627 16.1268 10.3891V18.2684H12.0393V15.0509C12.0393 14.7491 11.7878 14.4852 11.4837 14.4852H8.5283C8.2032 14.4852 7.94137 14.7491 7.94137 15.0509V18.2684H3.86422V10.6507C3.86422 10.3466 3.61292 10.094 3.28782 10.094C2.98396 10.094 2.73242 10.3466 2.73242 10.6507V18.8452C2.73242 19.1493 2.98396 19.402 3.28782 19.402H8.5283C8.83216 19.402 9.0837 19.1493 9.0837 18.8452V15.6278H10.9073V18.8452C10.9073 19.1493 11.1588 19.402 11.4837 19.402H16.7032C17.0071 19.402 17.2586 19.1493 17.2586 18.8452V10.3891C17.2586 10.0627 17.0071 9.81226 16.7032 9.81226Z" fill="#171717"/>
<path d="M19.8368 10.2617L15.2883 5.69374V2.57916C15.2883 2.25494 15.0262 2.00455 14.7013 2.00455C14.3973 2.00455 14.1458 2.25498 14.1458 2.57916V4.55122L10.3937 0.777034C10.2787 0.660759 10.1422 0.598145 10.006 0.598145C9.8488 0.598145 9.71243 0.662981 9.59726 0.777034L0.175193 10.199C-0.050854 10.4249 -0.0658214 10.7871 0.175193 10.995C0.384704 11.2365 0.745588 11.2208 0.971635 10.995L10.006 1.98217L19.0193 11.08C19.1132 11.1739 19.2499 11.2276 19.4281 11.2276C19.5853 11.2276 19.7214 11.1739 19.8368 11.08C20.0465 10.8698 20.0622 10.4897 19.8368 10.2617Z" fill="#171717"/>
</g>
<defs>
<clipPath id="clip0">
<rect width="20" height="20" fill="white"/>
</clipPath>
</defs>
</svg>
