<svg width="30" height="32" viewBox="0 .5 25 35" fill="none" xmlns="http://www.w3.org/2000/svg">
<path d="M7.09324 5.22123C7.12249 5.27973 7.15174 5.33823 7.18099 5.38211C7.21024 5.42598 7.25411 5.46986 7.28337 5.51374C7.32724 5.55761 7.37112 5.60149 7.42962 5.64536C7.47349 5.67461 7.53199 5.71849 7.60512 5.73311C7.66362 5.76236 7.72212 5.77699 7.79525 5.79161C7.86837 5.80624 7.92688 5.80624 7.98538 5.80624C8.04388 5.80624 8.117 5.80624 8.1755 5.79161C8.23401 5.77699 8.29251 5.76236 8.33638 5.73311H8.35101C8.40951 5.70386 8.46801 5.67461 8.52651 5.63074C8.57039 5.60149 8.61426 5.55761 8.65814 5.51374L8.67276 5.49911C8.71664 5.45523 8.74589 5.41136 8.77514 5.36748C8.80439 5.32361 8.83364 5.27973 8.84826 5.22123C8.84826 5.20661 8.84826 5.20661 8.86289 5.19198C8.89214 5.13348 8.90677 5.06035 8.92139 5.00185C8.93602 4.94335 8.93602 4.87023 8.93602 4.81172C8.93602 4.75322 8.93602 4.6801 8.92139 4.6216C8.90677 4.5631 8.89214 4.50459 8.86289 4.43147C8.81901 4.32909 8.76051 4.24134 8.68739 4.16821C8.67276 4.15359 8.67276 4.15359 8.65814 4.13896C8.61426 4.09509 8.57039 4.06584 8.51188 4.02196C8.45338 3.99271 8.40951 3.96346 8.35101 3.93421C8.29251 3.90496 8.23401 3.89033 8.1755 3.87571C8.10238 3.86108 8.04388 3.86108 7.98538 3.86108C7.92688 3.86108 7.85375 3.86108 7.79525 3.87571C7.73675 3.89033 7.67825 3.90496 7.61975 3.93421H7.60512C7.54662 3.96346 7.48812 3.99271 7.44424 4.02196C7.38574 4.06584 7.34187 4.09509 7.29799 4.13896C7.25411 4.18284 7.21024 4.22671 7.18099 4.27059C7.15174 4.31447 7.12249 4.37297 7.09324 4.43147C7.06399 4.48997 7.04936 4.54847 7.03474 4.60697C7.02011 4.6801 7.02011 4.7386 7.02011 4.7971C7.02011 4.8556 7.02011 4.92873 7.03474 4.98723C7.04936 5.10423 7.07861 5.16273 7.09324 5.22123Z" fill="#9CAFC6"/>
<path d="M9.12616 10.574H8.78978V6.99085C8.78978 6.7861 8.6289 6.6106 8.40953 6.6106H6.87388C6.66912 6.6106 6.49362 6.77147 6.49362 6.99085V7.78061C6.49362 7.98537 6.6545 8.16087 6.87388 8.16087H7.18101V10.5887H6.87388C6.66912 10.5887 6.49362 10.7495 6.49362 10.9689V11.7587C6.49362 11.9634 6.6545 12.1389 6.87388 12.1389H9.12616C9.33091 12.1389 9.50642 11.9781 9.50642 11.7587V10.9689C9.50642 10.7495 9.33091 10.574 9.12616 10.574Z" fill="#9CAFC6"/>
<path d="M8 0C3.58318 0 0 3.58318 0 8C0 12.4168 3.58318 16 8 16C12.4168 16 16 12.4168 16 8C16 3.58318 12.4168 0 8 0ZM8 14.947C4.16819 14.947 1.05302 11.8318 1.05302 8C1.05302 4.16819 4.16819 1.05302 8 1.05302C11.8318 1.05302 14.947 4.16819 14.947 8C14.947 11.8318 11.8318 14.947 8 14.947Z" fill="#9CAFC6"/>
</svg>
