<svg width="45" height="22" viewBox="0 0 18 22" fill="none" xmlns="http://www.w3.org/2000/svg">
<path d="M15.4167 1.83335H13.4989C13.309 1.30101 12.8051 0.916695 12.2083 0.916695H10.8235C10.3929 0.345555 9.71616 0 9 0C8.28384 0 7.60708 0.345555 7.17649 0.916652H5.79165C5.1949 0.916652 4.69092 1.30096 4.50109 1.8333H2.58335C1.57268 1.83335 0.75 2.65555 0.75 3.66665V20.1667C0.75 21.1778 1.57268 22 2.58335 22H15.4167C16.4273 22 17.25 21.1778 17.25 20.1667V3.66665C17.25 2.65555 16.4273 1.83335 15.4167 1.83335ZM5.33335 2.29165C5.33335 2.03878 5.53925 1.8333 5.7917 1.8333H7.42094C7.58388 1.8333 7.73517 1.74646 7.8166 1.60548C8.06814 1.17399 8.51037 0.916652 9.00004 0.916652C9.48972 0.916652 9.93195 1.17404 10.1835 1.60548C10.265 1.74646 10.4163 1.8333 10.5791 1.8333H12.2084C12.4608 1.8333 12.6667 2.03874 12.6667 2.29165V2.75C12.6667 3.25531 12.2558 3.66665 11.7501 3.66665H6.25C5.74422 3.66665 5.33335 3.25531 5.33335 2.75V2.29165ZM16.3333 20.1667C16.3333 20.672 15.9224 21.0833 15.4167 21.0833H2.58335C2.07756 21.0833 1.6667 20.672 1.6667 20.1667V3.66665C1.6667 3.16134 2.07761 2.75 2.58335 2.75H4.4167C4.4167 3.7611 5.23938 4.58335 6.25004 4.58335H11.75C12.7607 4.58335 13.5834 3.76114 13.5834 2.75H15.4167C15.9225 2.75 16.3334 3.16134 16.3334 3.66665V20.1667H16.3333Z" fill="#9CAFC6"/>
<path d="M4.875 7.33325C4.11677 7.33325 3.5 7.95003 3.5 8.70825C3.5 9.46648 4.11677 10.0833 4.875 10.0833C5.63323 10.0833 6.25 9.46648 6.25 8.70825C6.25 7.95003 5.63323 7.33325 4.875 7.33325ZM4.875 9.16656C4.62256 9.16656 4.41665 8.96112 4.41665 8.70821C4.41665 8.45534 4.62256 8.24986 4.875 8.24986C5.12744 8.24986 5.33335 8.45529 5.33335 8.70821C5.33335 8.96112 5.12744 9.16656 4.875 9.16656Z" fill="#9CAFC6"/>
<path d="M4.875 11.9167C4.11677 11.9167 3.5 12.5335 3.5 13.2917C3.5 14.05 4.11677 14.6667 4.875 14.6667C5.63323 14.6667 6.25 14.05 6.25 13.2917C6.25 12.5336 5.63323 11.9167 4.875 11.9167ZM4.875 13.7501C4.62256 13.7501 4.41665 13.5447 4.41665 13.2917C4.41665 13.0389 4.62256 12.8334 4.875 12.8334C5.12744 12.8334 5.33335 13.0388 5.33335 13.2917C5.33335 13.5447 5.12744 13.7501 4.875 13.7501Z" fill="#9CAFC6"/>
<path d="M4.875 16.5C4.11677 16.5 3.5 17.1168 3.5 17.875C3.5 18.6332 4.11677 19.25 4.875 19.25C5.63323 19.25 6.25 18.6332 6.25 17.875C6.25 17.1168 5.63323 16.5 4.875 16.5ZM4.875 18.3333C4.62256 18.3333 4.41665 18.1279 4.41665 17.875C4.41665 17.6221 4.62256 17.4167 4.875 17.4167C5.12744 17.4167 5.33335 17.6221 5.33335 17.875C5.33335 18.1279 5.12744 18.3333 4.875 18.3333Z" fill="#9CAFC6"/>
<path d="M14.0416 8.25H8.5416C8.28826 8.25 8.08325 8.455 8.08325 8.70835C8.08325 8.96169 8.28826 9.1667 8.5416 9.1667H14.0416C14.2949 9.1667 14.4999 8.96169 14.4999 8.70835C14.4999 8.455 14.2949 8.25 14.0416 8.25Z" fill="#9CAFC6"/>
<path d="M14.0416 12.8333H8.5416C8.28826 12.8333 8.08325 13.0383 8.08325 13.2916C8.08325 13.5449 8.28826 13.7499 8.5416 13.7499H14.0416C14.2949 13.7499 14.4999 13.5449 14.4999 13.2916C14.4999 13.0383 14.2949 12.8333 14.0416 12.8333Z" fill="#9CAFC6"/>
<path d="M14.0416 17.4167H8.5416C8.28826 17.4167 8.08325 17.6218 8.08325 17.8751C8.08325 18.1284 8.28826 18.3334 8.5416 18.3334H14.0416C14.2949 18.3334 14.4999 18.1284 14.4999 17.8751C14.4999 17.6218 14.2949 17.4167 14.0416 17.4167Z" fill="#9CAFC6"/>
</svg>
