<svg width="154" height="32" viewBox="0 0 154 32" fill="none" xmlns="http://www.w3.org/2000/svg">
<g id="logo_instapp">
<g id="Group 11">
<path id="APP" fill-rule="evenodd" clip-rule="evenodd" d="M81.2725 26.9262H91.0607L92.928 31.4438H98.048L88.6212 10.3615H83.8023L74.4056 31.4438H79.4052L81.2725 26.9262ZM86.1816 15.1502L89.5247 23.2217H82.8386L86.1816 15.1502ZM110.627 10.3615C112.494 10.3615 114.116 10.6727 115.491 11.2951C116.867 11.9175 117.926 12.801 118.669 13.9455C119.411 15.0899 119.783 16.4452 119.783 18.0113C119.783 19.5574 119.411 20.9076 118.669 22.0622C117.926 23.2167 116.867 24.1001 115.491 24.7125C114.116 25.3249 112.494 25.6311 110.627 25.6311H106.381V31.4438H101.501V10.3615H110.627ZM113.699 20.7069C112.936 21.3393 111.822 21.6556 110.356 21.6556H106.381V14.337H110.356C111.822 14.337 112.936 14.6532 113.699 15.2857C114.462 15.9182 114.844 16.8267 114.844 18.0113C114.844 19.1759 114.462 20.0744 113.699 20.7069ZM133.928 10.3615C135.795 10.3615 137.417 10.6727 138.792 11.2951C140.168 11.9175 141.227 12.801 141.97 13.9455C142.712 15.0899 143.084 16.4452 143.084 18.0113C143.084 19.5574 142.712 20.9076 141.97 22.0622C141.227 23.2167 140.168 24.1001 138.792 24.7125C137.417 25.3249 135.795 25.6311 133.928 25.6311H129.682V31.4438H124.803V10.3615H133.928ZM137 20.7069C136.237 21.3393 135.123 21.6556 133.657 21.6556H129.682V14.337H133.657C135.123 14.337 136.237 14.6532 137 15.2857C137.763 15.9182 138.145 16.8267 138.145 18.0113C138.145 19.1759 137.763 20.0744 137 20.7069Z" fill="#042254"/>
<path id="INST" fill-rule="evenodd" clip-rule="evenodd" d="M43.6505 31.8052C41.984 31.8052 40.3727 31.5793 38.8166 31.1275C37.2605 30.6758 36.0107 30.0885 35.067 29.3656L36.7235 25.6913C37.627 26.3539 38.7012 26.886 39.946 27.2875C41.1909 27.6891 42.4358 27.8899 43.6806 27.8899C45.066 27.8899 46.09 27.6841 46.7526 27.2725C47.4152 26.8609 47.7465 26.3137 47.7465 25.6311C47.7465 25.1291 47.5508 24.7125 47.1592 24.3812C46.7677 24.0499 46.2657 23.7838 45.6533 23.5831C45.0409 23.3823 44.2127 23.1614 43.1686 22.9205C41.5623 22.539 40.2472 22.1575 39.2232 21.776C38.1992 21.3945 37.3208 20.7821 36.5879 19.9388C35.8551 19.0955 35.4886 17.9711 35.4886 16.5656C35.4886 15.3409 35.8199 14.2315 36.4825 13.2376C37.1451 12.2438 38.144 11.4557 39.4792 10.8734C40.8144 10.2911 42.4458 10 44.3733 10C45.7186 10 47.0337 10.1606 48.3187 10.4819C49.6038 10.8031 50.7282 11.2649 51.6919 11.8673L50.186 15.5718C48.2384 14.4674 46.2908 13.9153 44.3432 13.9153C42.9779 13.9153 41.9689 14.1362 41.3164 14.5779C40.6638 15.0196 40.3376 15.6019 40.3376 16.3247C40.3376 17.0475 40.714 17.5846 41.467 17.936C42.2199 18.2874 43.3694 18.6337 44.9155 18.9751C46.5217 19.3566 47.8369 19.738 48.8609 20.1195C49.8849 20.501 50.7633 21.1034 51.4962 21.9266C52.229 22.7498 52.5955 23.8641 52.5955 25.2696C52.5955 26.4744 52.2591 27.5736 51.5865 28.5675C50.9139 29.5614 49.9049 30.3495 48.5597 30.9318C47.2144 31.514 45.5781 31.8052 43.6505 31.8052ZM4.87906 10.3614H0V31.4438H4.87906V10.3614ZM30.469 31.4438V10.3614H25.6502V23.1614L15.1693 10.3614H11.1335V31.4438H15.9523V18.6438L26.4634 31.4438H30.469ZM54.8141 14.3369H61.5605V31.4438H66.4395V14.3369H73.1859V10.3614H54.8141V14.3369Z" fill="#FF6B61"/>
</g>
<path id="Oval" fill-rule="evenodd" clip-rule="evenodd" d="M150 8C152.209 8 154 6.20914 154 4C154 1.79086 152.209 0 150 0C147.791 0 146 1.79086 146 4C146 6.20914 147.791 8 150 8Z" fill="#833AB4"/>
</g>
</svg>
