<svg width="45" height="20" viewBox="0 0 20 20" fill="none" xmlns="http://www.w3.org/2000/svg">
<g clip-path="url(#clip0)">
<path d="M10.4922 0.631256C10.0853 0.224152 9.54402 0 8.96846 0C8.3929 0 7.85167 0.224152 7.44472 0.631104C7.03761 1.03821 6.81346 1.57928 6.81346 2.15485C6.81346 2.59293 6.94362 3.01071 7.18501 3.36487L2.9893 13.6388C2.72838 13.5291 2.44563 13.4714 2.15404 13.4714C1.57863 13.4714 1.0374 13.6954 0.630291 14.1023C-0.209858 14.9426 -0.210011 16.3097 0.630291 17.15L2.84923 19.3689C3.25618 19.7758 3.79741 20 4.37297 20C4.94868 20 5.48976 19.7758 5.89671 19.3689C6.30367 18.9619 6.52782 18.4207 6.52797 17.8452C6.52797 17.5536 6.47014 17.2708 6.36043 17.0099L8.49437 16.1385L9.32842 16.9725C9.86309 17.5072 10.6953 17.8078 11.4938 17.8078C11.8551 17.8078 12.2096 17.7463 12.5264 17.6169L14.5716 16.7815C15.1371 16.5504 15.5209 16.1235 15.6244 15.6099C15.7278 15.0964 15.5395 14.554 15.1074 14.122L14.6214 13.636L16.634 12.814C16.9883 13.0554 17.4061 13.1856 17.8442 13.1856C17.8444 13.1856 17.8444 13.1856 17.8444 13.1856C18.4198 13.1856 18.961 12.9614 19.3679 12.5545C20.2081 11.7142 20.2081 10.347 19.3679 9.50684L10.4922 0.631256ZM13.366 12.8828C13.3641 12.8836 13.3621 12.8845 13.3601 12.8853L8.41564 14.9048C8.41365 14.9055 8.41167 14.9063 8.40984 14.9071L5.62129 16.046L3.9532 14.3779L8.06804 4.30206L15.6968 11.931L13.366 12.8828ZM5.06801 18.5403C4.88246 18.7259 4.63557 18.8281 4.37297 18.8281C4.11037 18.8281 3.86348 18.7259 3.67778 18.5402L1.45884 16.3214C1.07554 15.9381 1.07554 15.3143 1.45884 14.931C1.64454 14.7453 1.89143 14.6431 2.15404 14.6431C2.41664 14.6431 2.66353 14.7455 2.84923 14.9312L5.06801 17.15C5.25371 17.3357 5.35609 17.5826 5.35609 17.845C5.35594 18.1078 5.25371 18.3545 5.06801 18.5403ZM14.2788 14.9507C14.4285 15.1004 14.5002 15.2563 14.4755 15.3784C14.4509 15.5006 14.3245 15.6166 14.1285 15.6966L12.0832 16.532C11.5014 16.7696 10.6015 16.5881 10.1571 16.144L9.67098 15.658L13.4446 14.1167L14.2788 14.9507ZM18.5392 11.7258C18.3535 11.9115 18.1068 12.0137 17.8444 12.0137C17.8444 12.0137 17.8444 12.0137 17.8442 12.0137C17.5816 12.0137 17.3346 11.9113 17.1489 11.7258L8.27327 2.85004V2.84988C8.08757 2.66434 7.98534 2.4176 7.98534 2.155C7.98534 1.8924 8.08757 1.64551 8.27327 1.45981C8.45897 1.27411 8.70586 1.17188 8.96846 1.17188C9.23107 1.17188 9.47795 1.27411 9.66365 1.45981L18.5392 10.3354C18.9225 10.7188 18.9225 11.3425 18.5392 11.7258Z" fill="#9CAFC6"/>
<path d="M16.7347 3.8504C16.8845 3.8504 17.0345 3.79318 17.1489 3.67874L19.8273 1.00037C20.0562 0.771484 20.0562 0.400543 19.8273 0.171661C19.5984 -0.0572205 19.2275 -0.0572205 18.9988 0.171661L16.3202 2.85004C16.0915 3.07892 16.0915 3.44986 16.3202 3.67874C16.4347 3.79318 16.5847 3.8504 16.7347 3.8504Z" fill="#9CAFC6"/>
<path d="M14.0719 2.0752C14.2219 2.0752 14.3719 2.01797 14.4863 1.90353L15.3897 1.00021C15.6185 0.771484 15.6185 0.400543 15.3897 0.171661C15.1609 -0.0572205 14.7898 -0.0572205 14.5609 0.171661L13.6576 1.07498C13.4289 1.30371 13.4289 1.67465 13.6576 1.90353C13.7721 2.01797 13.9221 2.0752 14.0719 2.0752Z" fill="#9CAFC6"/>
<path d="M18.9988 4.60929L18.0955 5.51276C17.8666 5.74165 17.8666 6.11259 18.0955 6.34147C18.2099 6.45591 18.3598 6.51298 18.5098 6.51298C18.6598 6.51298 18.8098 6.45576 18.924 6.34147L19.8274 5.438C20.0562 5.20911 20.0562 4.83817 19.8274 4.60929C19.5985 4.38056 19.2275 4.38056 18.9988 4.60929Z" fill="#9CAFC6"/>
</g>
<defs>
<clipPath id="clip0">
<rect width="20" height="20" fill="white"/>
</clipPath>
</defs>
</svg>
