<svg width="45" height="22" viewBox="0 0 22 22" fill="none" xmlns="http://www.w3.org/2000/svg">
<g clip-path="url(#clip0)">
<path d="M6.87497 7.3335H4.12497C3.87163 7.3335 3.66663 7.5385 3.66663 7.79184V11.4585C3.66663 11.7118 3.87163 11.9168 4.12497 11.9168H6.87497C7.12832 11.9168 7.33332 11.7118 7.33332 11.4585V7.79184C7.33332 7.5385 7.12832 7.3335 6.87497 7.3335ZM6.41662 11.0001H4.58328V8.25015H6.41662V11.0001Z" fill="#9CAFC6"/>
<path d="M12.375 4.5835H9.62497C9.37163 4.5835 9.16663 4.7885 9.16663 5.04184V11.4585C9.16663 11.7118 9.37163 11.9168 9.62497 11.9168H12.375C12.6283 11.9168 12.8333 11.7118 12.8333 11.4585V5.0418C12.8333 4.7885 12.6283 4.5835 12.375 4.5835ZM11.9166 11.0001H10.0833V5.50015H11.9166V11.0001Z" fill="#9CAFC6"/>
<path d="M17.875 2.75H15.125C14.8716 2.75 14.6666 2.955 14.6666 3.20835V11.4583C14.6666 11.7117 14.8716 11.9167 15.125 11.9167H17.875C18.1283 11.9167 18.3333 11.7117 18.3333 11.4583V3.20835C18.3333 2.955 18.1283 2.75 17.875 2.75ZM17.4166 11H15.5833V3.66665H17.4166V11Z" fill="#9CAFC6"/>
<path d="M20.1667 0.916748H1.83335C0.822207 0.916748 0 1.739 0 2.7501V15.5834C0 16.5945 0.822207 17.4168 1.83335 17.4168H8.25125C8.23148 18.1495 8.09106 19.3206 7.56834 19.8705C7.37632 20.0728 7.15567 20.1668 6.87504 20.1668C6.6217 20.1668 6.4167 20.3718 6.4167 20.6251C6.4167 20.8785 6.6217 21.0835 6.87504 21.0835H15.125C15.3784 21.0835 15.5834 20.8785 15.5834 20.6251C15.5834 20.3718 15.3784 20.1668 15.125 20.1668C14.8444 20.1668 14.6237 20.0728 14.4317 19.8705C13.909 19.3206 13.7686 18.1495 13.7488 17.4168H20.1667C21.1778 17.4168 22.0001 16.5946 22.0001 15.5834V2.7501C22 1.739 21.1778 0.916748 20.1667 0.916748ZM8.49617 20.1667C9.04965 19.3182 9.15677 18.0962 9.17056 17.4167H12.8294C12.8432 18.0962 12.9503 19.3182 13.5038 20.1667H8.49617ZM21.0833 15.5834C21.0833 16.0888 20.672 16.5001 20.1667 16.5001H1.83335C1.32804 16.5001 0.916695 16.0888 0.916695 15.5834V13.7501H21.0833V15.5834ZM21.0833 12.8334H0.916652V2.7501C0.916652 2.24478 1.32799 1.83344 1.8333 1.83344H20.1667C20.672 1.83344 21.0833 2.24478 21.0833 2.7501V12.8334H21.0833Z" fill="#9CAFC6"/>
<path d="M11 16.0418C11.5063 16.0418 11.9167 15.6314 11.9167 15.1251C11.9167 14.6189 11.5063 14.2085 11 14.2085C10.4938 14.2085 10.0834 14.6189 10.0834 15.1251C10.0834 15.6314 10.4938 16.0418 11 16.0418Z" fill="#9CAFC6"/>
</g>
<defs>
<clipPath id="clip0">
<rect width="22" height="22" fill="white"/>
</clipPath>
</defs>
</svg>
