<svg width="154" height="154" viewBox="0 0 154 154" fill="none" xmlns="http://www.w3.org/2000/svg">
<g filter="url(#filter0_d)">
<path fill-rule="evenodd" clip-rule="evenodd" d="M77 83C84.1797 83 90 77.1797 90 70C90 62.8203 84.1797 57 77 57C69.8203 57 64 62.8203 64 70C64 77.1797 69.8203 83 77 83Z" fill="white"/>
<path d="M89.5 70C89.5 76.9036 83.9036 82.5 77 82.5C70.0964 82.5 64.5 76.9036 64.5 70C64.5 63.0964 70.0964 57.5 77 57.5C83.9036 57.5 89.5 63.0964 89.5 70Z" stroke="#ECEBED"/>
</g>
<path d="M79.8687 67.9521C79.8687 68.4499 79.7236 68.8652 79.4336 69.1982C79.1436 69.5277 78.7354 69.7497 78.209 69.8643V69.9072C78.8392 69.986 79.3118 70.1829 79.627 70.498C79.9421 70.8096 80.0996 71.2249 80.0996 71.7441C80.0996 72.4997 79.8328 73.0833 79.2993 73.4951C78.7658 73.9033 78.0067 74.1074 77.022 74.1074C76.1519 74.1074 75.4178 73.966 74.8198 73.6831V72.5605C75.1528 72.7253 75.5055 72.8524 75.8779 72.9419C76.2503 73.0314 76.6084 73.0762 76.9521 73.0762C77.5609 73.0762 78.0156 72.9634 78.3164 72.7378C78.6172 72.5122 78.7676 72.1631 78.7676 71.6904C78.7676 71.2715 78.6011 70.9635 78.2681 70.7666C77.9351 70.5697 77.4123 70.4712 76.6997 70.4712H76.0176V69.4453H76.7104C77.9637 69.4453 78.5903 69.012 78.5903 68.1455C78.5903 67.8089 78.4811 67.5493 78.2627 67.3667C78.0443 67.1841 77.722 67.0928 77.2959 67.0928C76.9987 67.0928 76.7122 67.1357 76.4365 67.2217C76.1608 67.304 75.835 67.467 75.459 67.7104L74.8413 66.8296C75.561 66.2996 76.3971 66.0347 77.3496 66.0347C78.141 66.0347 78.7586 66.2048 79.2026 66.5449C79.6466 66.8851 79.8687 67.3542 79.8687 67.9521Z" fill="#9CAFC6"/>
<defs>
<filter id="filter0_d" x="0" y="0" width="154" height="154" filterUnits="userSpaceOnUse" color-interpolation-filters="sRGB">
<feFlood flood-opacity="0" result="BackgroundImageFix"/>
<feColorMatrix in="SourceAlpha" type="matrix" values="0 0 0 0 0 0 0 0 0 0 0 0 0 0 0 0 0 0 127 0"/>
<feOffset dy="7"/>
<feGaussianBlur stdDeviation="32"/>
<feColorMatrix type="matrix" values="0 0 0 0 0 0 0 0 0 0 0 0 0 0 0 0 0 0 0.07 0"/>
<feBlend mode="normal" in2="BackgroundImageFix" result="effect1_dropShadow"/>
<feBlend mode="normal" in="SourceGraphic" in2="effect1_dropShadow" result="shape"/>
</filter>
</defs>
</svg>
