<svg width="35" height="25" viewBox="0 0 20 25" fill="none" xmlns="http://www.w3.org/2000/svg">
<path d="M14.6855 15.0029C13.7271 15.0028 12.9474 14.2232 12.9474 13.2648V10.3784C12.9474 9.42 13.7271 8.64034 14.6855 8.64034H19.2143C19.2418 8.64034 19.269 8.64116 19.2961 8.64239V5.76703C19.2961 5.02688 18.6961 4.42688 17.956 4.42688H1.34019C0.600003 4.42684 0 5.02684 0 5.76699V17.8761C0 18.6163 0.600003 19.2163 1.34019 19.2163H17.956C18.6961 19.2163 19.2961 18.6163 19.2961 17.8761V15.0008C19.269 15.002 19.2418 15.0029 19.2143 15.0029H14.6855Z" fill="#9CAFC6"/>
<path d="M19.2143 9.59265H14.6855C14.2516 9.59265 13.8998 9.94443 13.8998 10.3783V13.2648C13.8998 13.6987 14.2516 14.0504 14.6855 14.0504H19.2143C19.6482 14.0504 20 13.6987 20 13.2648V10.3783C20 9.94438 19.6482 9.59265 19.2143 9.59265ZM16.246 12.9555C15.6197 12.9555 15.112 12.4478 15.112 11.8215C15.112 11.1952 15.6197 10.6875 16.246 10.6875C16.8724 10.6875 17.3801 11.1952 17.3801 11.8215C17.3801 12.4478 16.8724 12.9555 16.246 12.9555Z" fill="#9CAFC6"/>
<path d="M15.6225 1.97194C15.3226 1.06443 14.3439 0.571814 13.4364 0.871641L6.62805 3.12095H16.0021L15.6225 1.97194Z" fill="#9CAFC6"/>
</svg>
